<?xml version="1.0" encoding="utf-8"?>
<!-- Generator: Adobe Illustrator 26.0.1, SVG Export Plug-In . SVG Version: 6.00 Build 0)  -->
<svg version="1.1" id="Layer_1" xmlns="http://www.w3.org/2000/svg" xmlns:xlink="http://www.w3.org/1999/xlink" x="0px" y="0px"
	 viewBox="0 0 1332 1200" style="enable-background:new 0 0 1332 1200;" xml:space="preserve">
<style type="text/css">
	.st0{fill:#FFFFFF;}
</style>
<g>
	<g>
		<path class="st0" d="M1364.2-126.2c-2.4,0-4.8,0.1-7.2,0.1c-470.6,0-941.3,0-1411.9,0c-2.2,0-4.4,0-6.9,0c-0.2,1.2-0.4,2.1-0.5,3
			c-0.1,1.9,0,3.8,0,5.8c0,470.4,0,940.8,0,1411.2c0,2.4,0,4.8-0.1,7.2c-1.6,0-3.2,0-4.8,0c0-477,0-954.1,0-1431.1
			c477.1,0,954.2,0,1431.4,0C1364.2-128.8,1364.2-127.5,1364.2-126.2z"/>
		<path class="st0" d="M805.5,181.9c1.9-2.6,4.2-3.1,6.7-3c2.9,0.1,5.8,0.3,8.6,0.3c44.8,0,89.6,0,134.4,0c8.8,0,17.6-0.1,26.4-0.1
			c9.8,0.1,19.5,1.4,28.9,4.1c18.6,5.4,33.7,16,45.2,31.5c10.4,14.1,17.3,29.9,20.2,47.2c3.2,18.9-0.1,36.9-8.9,53.9
			c-4,7.7-8.9,14.8-14.5,21.4c-1.3,1.6-2.6,3.2-4,5c1.2,1.4,2.1,2.6,3.2,3.7c10.8,12.2,18.4,26.1,22.1,42
			c8.3,36.1-3.9,72.5-30.4,95.8c-14.5,12.8-31.5,19.6-50.8,21.5c-23.9,2.4-47.9,2.3-71.9,2c-16-0.2-32-0.4-48-0.6
			c-3.8,0-7.7,0.1-11.5,0.2c-0.8,0-1.5-0.1-2.6-0.1c-0.7-6.1-0.3-11.9-0.3-17.8c-0.1-6.1,0-12.2,0-18.2c0-5.9-0.1-11.8,0.1-17.7
			c2.6-2,5.5-2.2,8.3-2.1c4.3,0.1,8.6,0.4,12.9,0.4c25,0,49.9,0,74.9,0c7.8,0,15.7,0,23.5-0.1c5.5-0.1,10.9-0.7,16-2.6
			c15.5-5.6,25.2-16.4,27.1-32.9c1.9-16.6-4.8-29.6-18.7-38.8c-6.6-4.3-14-6.3-21.8-6.7c-1.8-0.1-3.5-0.1-5.3-0.2
			c-38.1,0-76.2-0.1-114.2-0.1c-17.3,0-34.6,0.1-51.8,0.1c-1.7,0-3.5,0-5.4,0c-0.2-1-0.5-1.8-0.5-2.5c0-16.2,0-32.3,0-48.5
			c0-0.6,0.2-1.2,0.2-1.8c2.3-2,5-2.1,7.8-2c4.8,0.1,9.6,0.3,14.4,0.3c16.6,0,33.3-0.1,49.9-0.1c18.9,0,37.8,0.1,56.6,0.1
			c15.2,0,30.4-0.1,45.6-0.2c9.9-0.1,18.9-2.9,26.9-8.7c14-10.1,19.7-27.3,14.5-43.8c-1.7-5.2-4.2-10-7.6-14.4
			c-5.8-7.5-13.6-12.1-22.9-13.8c-3.4-0.6-7-1-10.5-1c-35.5,0-71,0.1-106.6,0.1c-2.1,0-4.2,0-6.2-0.1c-5.2-0.2-9.7-2.1-13.5-5.4
			c-1.4-1.3-2.8-2.7-4.1-4c-13.3-13.2-26.6-26.3-39.9-39.5C807.3,184,806.5,183,805.5,181.9z"/>
		<path class="st0" d="M263.9,835c1.9-0.1,3.1-0.2,4.4-0.2c31.2,0,62.4,0,93.6,0c20.6,0,41.3,0,61.9-0.1c13.5,0,25.9-3.7,36.6-12.2
			c13.4-10.5,20.2-24.4,20.6-41.5c0.6-24.7-15.8-48.2-44.6-54c-3.9-0.8-7.9-1.2-11.9-1.2c-24-0.2-48-0.2-72-0.2
			c-8.2,0-16.3,0.2-24.5,0.3c-7.1,0.1-13-2.4-18.1-7.4c-14.4-14.1-28.8-28.2-43.2-42.3c-0.7-0.7-1.3-1.4-2.1-2.3
			c0.6-1.1,1.1-2.2,1.7-3.4c1.8,0,3.3,0,4.9,0c47,0,94.1-0.1,141.1-0.1c5.3,0,10.6,0.1,15.8,0.1c52.5,0.2,93.4,36.9,104.4,82.5
			c8.7,36,1.5,69-22,97.8c-16.5,20.2-38,32.4-63.6,37.3c-8.1,1.5-16.2,1.7-24.4,1.7c-32.6,0.1-65.3,0-97.9,0c-1.9,0-3.8,0.1-5.9,0.1
			c-0.2,1.1-0.5,2-0.6,2.9c-0.1,1.4,0,2.9,0,4.3c0,31.4,0,62.7,0,94.1c0,1.9-0.1,3.8-0.1,5.9c-1,0.2-1.7,0.6-2.4,0.6
			c-16.6,0-33.3,0-49.9,0c-0.3,0-0.6-0.1-1.2-0.2c-0.2-0.8-0.5-1.6-0.6-2.5c-0.1-1.3,0-2.6,0-3.8c0-49.9,0-99.8,0-149.7
			C263.9,839.4,263.9,837.5,263.9,835z"/>
		<path class="st0" d="M842.8,862.9c0,22.8,0,45,0,67.3c0,22.2,0,44.4,0,66.8c-1.3,0.2-2.2,0.5-3.1,0.5c-16.5,0-33,0-49.4,0
			c-0.8,0-1.6-0.1-2.6-0.2c-0.2-1-0.4-1.9-0.4-2.8c0-3.7,0-7.4,0-11c0-29.7,0-59.5,0-89.2c0-8-0.1-16-0.1-24c0-1.3,0-2.6,0-3.8
			c0-3,1-5.6,3.3-7.7c8.6-8.2,16-17.4,23.9-26.2c5.3-6,10.9-11.7,17.3-16.6c6.6-5,13.8-8.6,22.1-9.8c7-1.1,14-1.1,21.1-0.6
			c11.3,0.9,22.6,2.1,34,2c15.5-0.1,31-0.3,46.5-0.3c14.6,0,29.1,0.1,43.7,0.1c1.7,0,3.5-0.1,5.4-0.1c0.2-1.1,0.5-2,0.6-2.9
			c0.1-1.4,0-2.9,0-4.3c0-40.6,0-81.2,0-121.9c0-1.9,0.1-3.8,0.1-5.8c0.9-0.2,1.4-0.5,2-0.5c16.5,0,33,0,49.4,0
			c0.6,0,1.2,0.2,2.1,0.3c0.1,1,0.3,1.9,0.3,2.8c0.1,1,0,1.9,0,2.9c0,104.8,0,209.5,0,314.3c0,1.9-0.1,3.8-0.2,5.9
			c-1.4,0.1-2.5,0.3-3.5,0.3c-21.7,0.5-44.6,0.2-49.1-0.5c-0.1-0.8-0.3-1.7-0.3-2.6c-0.1-1.4,0-2.9,0-4.3c0-40.5,0-80.9,0-121.4
			c0-1.9-0.1-3.8-0.1-5.9c-1.2-0.2-2.1-0.5-3-0.5c-1.1-0.1-2.2,0-3.4,0c-50.1,0-100.1,0-150.2,0
			C847.2,862.7,845.3,862.8,842.8,862.9z"/>
		<path class="st0" d="M499.8,394.8c-1.7,0-3,0-4.3,0c-16.8,0-33.6,0-50.4,0.1c-4.5,0-7.5-1.7-9.5-5.8
			c-13.2-26.7-26.5-53.2-39.7-79.9c-1.5-3-3-6-4.7-9.3c-0.7,0.7-1.3,1.2-1.6,1.8c-1.6,3.1-3.2,6.3-4.8,9.4
			c-27.3,54.3-54.6,108.5-81.8,162.8c-3,6-6,12-8.9,18c-0.9,1.7-1.7,3.4-2.7,5.1c-2.6,4.6-6.6,6.9-11.8,7c-1.6,0.1-3.2,0-4.8-0.1
			c-13.7-0.6-27.5-0.4-41.3-0.1c-1.9,0-3.8,0.2-5.7-0.2c-0.5-1.8,0.6-2.9,1.2-4.1c9-18,18-36.1,27-54.1
			c29.9-59.8,59.7-119.6,89.6-179.3c14.1-28.3,28.2-56.7,42.4-85c0.8-1.7,1.4-3.5,3-5c0.4,0.5,0.8,0.8,1,1.2
			c35.9,71.8,71.7,143.6,107.5,215.4C499.6,393.2,499.6,393.7,499.8,394.8z"/>
		<path class="st0" d="M553.8,503.5c-1.2,0.1-2.4,0.2-3.7,0.2c-16.8,0-33.6,0-50.3,0c-1,0-1.9,0-2.9-0.1c-1.9-0.1-3.4-1-4.5-2.5
			c-0.7-1-1.4-2.1-2-3.3c-7.6-15.3-15.1-30.6-22.7-45.9c-0.3-0.7-0.6-1.5-0.8-2.1c0.6-1.4,1.7-1,2.5-1c5.9,0,11.8,0.1,17.7,0.1
			c9.6,0,19.2-0.1,28.8-0.2c1,0,1.9,0,2.9,0c6.1-0.5,9.8,2.2,12.5,7.6c7,14.4,14.2,28.6,21.3,42.9
			C553.2,500.5,554.4,501.7,553.8,503.5z"/>
	</g>
</g>
</svg>
